<svg width="486" height="235" viewBox="0 0 486 235" fill="none" xmlns="http://www.w3.org/2000/svg">
<rect width="486" height="235" fill="white"/>
<path d="M25 34.3385L36.542 138.102L133 216.463M133 216.463L122.282 196.227L120.221 220.338L133 216.463Z" stroke="#BFBFBF" stroke-width="3"/>
<path d="M222.769 122.895C222.769 121.724 222.421 120.776 221.724 120.051C221.027 119.298 220.149 118.643 219.089 118.086C218.058 117.5 216.929 116.957 215.702 116.455C214.475 115.953 213.332 115.353 212.273 114.656C211.241 113.932 210.377 113.053 209.68 112.022C208.983 110.962 208.635 109.624 208.635 108.007C208.635 105.721 209.429 103.909 211.018 102.571C212.607 101.233 214.866 100.564 217.793 100.564C219.494 100.564 221.041 100.689 222.435 100.94C223.829 101.191 224.916 101.511 225.697 101.902L224.651 104.955C224.01 104.648 223.062 104.355 221.807 104.076C220.581 103.798 219.187 103.658 217.626 103.658C215.786 103.658 214.406 104.076 213.486 104.913C212.566 105.721 212.106 106.683 212.106 107.798C212.106 108.886 212.454 109.792 213.151 110.516C213.848 111.241 214.712 111.896 215.744 112.482C216.803 113.039 217.946 113.597 219.173 114.155C220.4 114.712 221.529 115.367 222.56 116.12C223.62 116.845 224.498 117.723 225.195 118.755C225.892 119.786 226.24 121.069 226.24 122.602C226.24 123.857 226.017 124.986 225.571 125.989C225.125 126.993 224.47 127.857 223.606 128.582C222.741 129.307 221.696 129.865 220.469 130.255C219.243 130.645 217.849 130.84 216.287 130.84C214.196 130.84 212.468 130.673 211.102 130.339C209.736 130.032 208.676 129.683 207.924 129.293L209.095 126.157C209.736 126.519 210.684 126.881 211.938 127.244C213.193 127.578 214.601 127.746 216.162 127.746C217.082 127.746 217.946 127.662 218.755 127.495C219.563 127.3 220.26 127.007 220.846 126.617C221.431 126.198 221.891 125.683 222.226 125.069C222.588 124.456 222.769 123.731 222.769 122.895ZM228.676 109.429H231.938V105.289L235.284 104.327V109.429H240.971V112.356H235.284V123.94C235.284 125.39 235.465 126.421 235.827 127.035C236.19 127.62 236.803 127.913 237.667 127.913C238.392 127.913 239.005 127.843 239.507 127.704C240.009 127.537 240.567 127.328 241.18 127.077L241.933 129.628C241.18 129.99 240.358 130.283 239.465 130.506C238.573 130.729 237.611 130.84 236.58 130.84C234.879 130.84 233.681 130.366 232.984 129.418C232.287 128.443 231.938 126.826 231.938 124.568V112.356H228.676V109.429ZM255.476 112.649C254.64 112.37 253.846 112.231 253.093 112.231C251.894 112.231 250.946 112.566 250.249 113.235C249.552 113.876 249.12 114.698 248.953 115.702V130.339H245.607V109.429H247.949L248.576 111.98H248.744C249.273 111.032 249.901 110.307 250.625 109.806C251.378 109.276 252.326 109.011 253.469 109.011C254.278 109.011 255.184 109.15 256.187 109.429L255.476 112.649ZM275.083 128.666C274.247 129.335 273.187 129.865 271.905 130.255C270.65 130.645 269.312 130.84 267.89 130.84C266.301 130.84 264.921 130.589 263.75 130.088C262.579 129.558 261.617 128.819 260.865 127.871C260.112 126.895 259.554 125.738 259.192 124.4C258.829 123.062 258.648 121.557 258.648 119.884C258.648 116.315 259.443 113.597 261.032 111.729C262.621 109.861 264.893 108.927 267.848 108.927C268.796 108.927 269.744 109.039 270.692 109.262C271.64 109.457 272.49 109.847 273.243 110.433C273.996 111.018 274.609 111.855 275.083 112.942C275.557 114.001 275.794 115.409 275.794 117.166C275.794 118.086 275.71 119.103 275.543 120.218H262.119C262.119 121.445 262.245 122.532 262.495 123.48C262.746 124.428 263.137 125.237 263.666 125.906C264.196 126.547 264.879 127.049 265.715 127.411C266.58 127.746 267.625 127.913 268.852 127.913C269.8 127.913 270.748 127.746 271.696 127.411C272.643 127.077 273.354 126.686 273.828 126.24L275.083 128.666ZM267.89 111.855C266.245 111.855 264.921 112.287 263.917 113.151C262.942 114.015 262.356 115.493 262.161 117.584H272.532C272.532 115.465 272.128 113.987 271.319 113.151C270.511 112.287 269.368 111.855 267.89 111.855ZM280.721 110.976C281.78 110.335 283.007 109.861 284.401 109.555C285.822 109.248 287.3 109.095 288.833 109.095C290.283 109.095 291.44 109.29 292.304 109.68C293.196 110.07 293.866 110.586 294.312 111.227C294.786 111.841 295.092 112.524 295.232 113.276C295.399 114.029 295.483 114.782 295.483 115.535C295.483 117.207 295.441 118.838 295.357 120.427C295.273 122.017 295.232 123.522 295.232 124.944C295.232 125.975 295.273 126.951 295.357 127.871C295.441 128.791 295.594 129.642 295.817 130.422H293.35L292.472 127.495H292.263C292.012 127.885 291.691 128.275 291.301 128.666C290.938 129.028 290.492 129.363 289.963 129.669C289.433 129.948 288.819 130.185 288.122 130.38C287.426 130.575 286.631 130.673 285.739 130.673C284.847 130.673 284.01 130.534 283.23 130.255C282.477 129.976 281.822 129.586 281.264 129.084C280.707 128.554 280.261 127.927 279.926 127.202C279.619 126.477 279.466 125.655 279.466 124.735C279.466 123.508 279.717 122.491 280.219 121.682C280.721 120.846 281.418 120.19 282.31 119.717C283.23 119.215 284.317 118.866 285.572 118.671C286.854 118.448 288.262 118.337 289.795 118.337C290.186 118.337 290.562 118.337 290.924 118.337C291.315 118.337 291.705 118.364 292.095 118.42C292.179 117.584 292.221 116.831 292.221 116.162C292.221 114.629 291.914 113.555 291.301 112.942C290.687 112.329 289.572 112.022 287.955 112.022C287.481 112.022 286.965 112.064 286.408 112.147C285.878 112.203 285.321 112.301 284.735 112.44C284.178 112.552 283.634 112.705 283.104 112.9C282.602 113.067 282.156 113.263 281.766 113.486L280.721 110.976ZM286.659 127.746C287.439 127.746 288.136 127.648 288.75 127.453C289.363 127.23 289.893 126.965 290.339 126.658C290.785 126.324 291.147 125.961 291.426 125.571C291.733 125.181 291.956 124.804 292.095 124.442V120.971C291.705 120.943 291.301 120.929 290.883 120.929C290.492 120.901 290.102 120.887 289.712 120.887C288.847 120.887 287.997 120.943 287.161 121.055C286.352 121.138 285.627 121.32 284.986 121.598C284.373 121.849 283.871 122.212 283.481 122.686C283.118 123.132 282.937 123.703 282.937 124.4C282.937 125.376 283.285 126.185 283.982 126.826C284.679 127.439 285.572 127.746 286.659 127.746ZM314.054 130.339V118.504C314.054 117.389 313.998 116.427 313.887 115.618C313.803 114.782 313.622 114.085 313.343 113.527C313.064 112.97 312.66 112.552 312.13 112.273C311.629 111.994 310.959 111.855 310.123 111.855C308.841 111.855 307.767 112.245 306.903 113.026C306.067 113.806 305.481 114.782 305.147 115.953V130.339H301.801V109.429H304.143L304.77 111.98H304.938C305.69 111.088 306.555 110.363 307.53 109.806C308.534 109.22 309.83 108.927 311.419 108.927C312.758 108.927 313.845 109.192 314.681 109.722C315.546 110.224 316.215 111.116 316.689 112.398C317.33 111.311 318.208 110.461 319.323 109.847C320.466 109.234 321.749 108.927 323.17 108.927C324.341 108.927 325.331 109.067 326.14 109.346C326.948 109.596 327.617 110.056 328.147 110.726C328.677 111.395 329.053 112.301 329.276 113.444C329.527 114.587 329.652 116.037 329.652 117.793V130.339H326.307V117.751C326.307 116.747 326.251 115.883 326.14 115.158C326.056 114.406 325.861 113.792 325.554 113.318C325.275 112.816 324.871 112.454 324.341 112.231C323.84 111.98 323.17 111.855 322.334 111.855C320.94 111.855 319.853 112.245 319.072 113.026C318.292 113.806 317.734 114.921 317.399 116.371V130.339H314.054ZM354.807 129.126C353.971 129.767 352.912 130.213 351.629 130.464C350.347 130.715 348.981 130.84 347.531 130.84C345.774 130.84 344.13 130.548 342.596 129.962C341.063 129.349 339.725 128.429 338.582 127.202C337.439 125.975 336.533 124.414 335.863 122.518C335.194 120.595 334.86 118.323 334.86 115.702C334.86 112.97 335.222 110.656 335.947 108.76C336.7 106.836 337.676 105.275 338.874 104.076C340.101 102.85 341.467 101.958 342.973 101.4C344.478 100.842 346.011 100.564 347.573 100.564C349.245 100.564 350.612 100.661 351.671 100.856C352.73 101.024 353.636 101.261 354.389 101.567L353.553 104.62C352.215 103.979 350.305 103.658 347.824 103.658C346.681 103.658 345.551 103.867 344.436 104.285C343.321 104.704 342.317 105.387 341.425 106.335C340.561 107.282 339.864 108.523 339.334 110.056C338.805 111.59 338.54 113.472 338.54 115.702C338.54 117.709 338.791 119.466 339.293 120.971C339.794 122.477 340.477 123.731 341.342 124.735C342.234 125.738 343.265 126.491 344.436 126.993C345.635 127.495 346.931 127.746 348.325 127.746C349.58 127.746 350.667 127.62 351.587 127.369C352.535 127.118 353.33 126.798 353.971 126.408L354.807 129.126ZM373.052 130.339V118.42C373.052 117.333 372.983 116.385 372.843 115.576C372.732 114.74 372.509 114.057 372.174 113.527C371.84 112.97 371.38 112.552 370.794 112.273C370.237 111.994 369.498 111.855 368.578 111.855C367.267 111.855 366.083 112.287 365.023 113.151C363.964 113.987 363.281 115.075 362.974 116.413V130.339H359.629V101.065H362.974V111.771H363.141C363.866 110.907 364.73 110.224 365.734 109.722C366.766 109.192 368.034 108.927 369.54 108.927C370.711 108.927 371.728 109.067 372.592 109.346C373.457 109.596 374.168 110.056 374.725 110.726C375.311 111.395 375.729 112.301 375.98 113.444C376.258 114.559 376.398 115.981 376.398 117.709V130.339H373.052ZM382.164 110.976C383.223 110.335 384.45 109.861 385.844 109.555C387.265 109.248 388.743 109.095 390.276 109.095C391.726 109.095 392.883 109.29 393.747 109.68C394.64 110.07 395.309 110.586 395.755 111.227C396.229 111.841 396.535 112.524 396.675 113.276C396.842 114.029 396.926 114.782 396.926 115.535C396.926 117.207 396.884 118.838 396.8 120.427C396.717 122.017 396.675 123.522 396.675 124.944C396.675 125.975 396.717 126.951 396.8 127.871C396.884 128.791 397.037 129.642 397.26 130.422H394.793L393.915 127.495H393.706C393.455 127.885 393.134 128.275 392.744 128.666C392.381 129.028 391.935 129.363 391.406 129.669C390.876 129.948 390.263 130.185 389.566 130.38C388.869 130.575 388.074 130.673 387.182 130.673C386.29 130.673 385.453 130.534 384.673 130.255C383.92 129.976 383.265 129.586 382.707 129.084C382.15 128.554 381.704 127.927 381.369 127.202C381.062 126.477 380.909 125.655 380.909 124.735C380.909 123.508 381.16 122.491 381.662 121.682C382.164 120.846 382.861 120.19 383.753 119.717C384.673 119.215 385.76 118.866 387.015 118.671C388.297 118.448 389.705 118.337 391.238 118.337C391.629 118.337 392.005 118.337 392.367 118.337C392.758 118.337 393.148 118.364 393.538 118.42C393.622 117.584 393.664 116.831 393.664 116.162C393.664 114.629 393.357 113.555 392.744 112.942C392.13 112.329 391.015 112.022 389.398 112.022C388.924 112.022 388.409 112.064 387.851 112.147C387.321 112.203 386.764 112.301 386.178 112.44C385.621 112.552 385.077 112.705 384.547 112.9C384.045 113.067 383.599 113.263 383.209 113.486L382.164 110.976ZM388.102 127.746C388.882 127.746 389.579 127.648 390.193 127.453C390.806 127.23 391.336 126.965 391.782 126.658C392.228 126.324 392.59 125.961 392.869 125.571C393.176 125.181 393.399 124.804 393.538 124.442V120.971C393.148 120.943 392.744 120.929 392.326 120.929C391.935 120.901 391.545 120.887 391.155 120.887C390.29 120.887 389.44 120.943 388.604 121.055C387.795 121.138 387.07 121.32 386.429 121.598C385.816 121.849 385.314 122.212 384.924 122.686C384.561 123.132 384.38 123.703 384.38 124.4C384.38 125.376 384.728 126.185 385.425 126.826C386.122 127.439 387.015 127.746 388.102 127.746ZM413.113 112.649C412.277 112.37 411.482 112.231 410.73 112.231C409.531 112.231 408.583 112.566 407.886 113.235C407.189 113.876 406.757 114.698 406.59 115.702V130.339H403.244V109.429H405.586L406.213 111.98H406.381C406.91 111.032 407.538 110.307 408.262 109.806C409.015 109.276 409.963 109.011 411.106 109.011C411.915 109.011 412.821 109.15 413.824 109.429L413.113 112.649ZM415.962 109.429H419.224V105.289L422.569 104.327V109.429H428.257V112.356H422.569V123.94C422.569 125.39 422.751 126.421 423.113 127.035C423.475 127.62 424.089 127.913 424.953 127.913C425.678 127.913 426.291 127.843 426.793 127.704C427.295 127.537 427.852 127.328 428.466 127.077L429.218 129.628C428.466 129.99 427.643 130.283 426.751 130.506C425.859 130.729 424.897 130.84 423.866 130.84C422.165 130.84 420.966 130.366 420.269 129.418C419.572 128.443 419.224 126.826 419.224 124.568V112.356H415.962V109.429ZM432.375 128.415C432.375 127.662 432.585 127.077 433.003 126.658C433.449 126.212 434.034 125.989 434.759 125.989C435.512 125.989 436.111 126.212 436.557 126.658C437.003 127.077 437.226 127.662 437.226 128.415C437.226 129.14 437.003 129.725 436.557 130.171C436.111 130.617 435.512 130.84 434.759 130.84C434.034 130.84 433.449 130.617 433.003 130.171C432.585 129.725 432.375 129.14 432.375 128.415ZM443.159 109.429H446.505V131.468C446.505 134.06 446.059 135.998 445.166 137.28C444.274 138.563 442.852 139.204 440.901 139.204C440.678 139.204 440.469 139.19 440.274 139.162C440.079 139.162 439.869 139.148 439.646 139.12V136.277C440.427 136.277 441.04 136.151 441.486 135.9C441.96 135.677 442.323 135.315 442.574 134.813C442.825 134.311 442.978 133.67 443.034 132.889C443.117 132.137 443.159 131.245 443.159 130.213V109.429ZM442.448 103.073C442.448 102.431 442.657 101.888 443.076 101.442C443.522 100.968 444.079 100.731 444.748 100.731C445.417 100.731 445.989 100.968 446.463 101.442C446.937 101.888 447.174 102.431 447.174 103.073C447.174 103.714 446.937 104.244 446.463 104.662C445.989 105.08 445.417 105.289 444.748 105.289C444.079 105.289 443.522 105.08 443.076 104.662C442.657 104.244 442.448 103.714 442.448 103.073ZM462.839 124.651C462.839 123.815 462.588 123.16 462.086 122.686C461.585 122.212 460.957 121.821 460.205 121.515C459.48 121.18 458.671 120.874 457.779 120.595C456.915 120.288 456.106 119.912 455.354 119.466C454.629 118.992 454.015 118.392 453.514 117.667C453.012 116.943 452.761 115.967 452.761 114.74C452.761 112.733 453.332 111.269 454.475 110.349C455.618 109.401 457.208 108.927 459.243 108.927C460.748 108.927 462.003 109.067 463.006 109.346C464.038 109.596 464.93 109.903 465.683 110.266L464.888 113.026C464.247 112.719 463.466 112.454 462.546 112.231C461.654 111.98 460.692 111.855 459.661 111.855C458.434 111.855 457.528 112.064 456.943 112.482C456.385 112.9 456.106 113.625 456.106 114.656C456.106 115.381 456.357 115.953 456.859 116.371C457.361 116.761 457.974 117.124 458.699 117.458C459.452 117.765 460.26 118.072 461.125 118.378C462.017 118.685 462.825 119.089 463.55 119.591C464.303 120.093 464.93 120.734 465.432 121.515C465.934 122.267 466.185 123.271 466.185 124.526C466.185 125.418 466.031 126.254 465.725 127.035C465.446 127.815 465 128.485 464.386 129.042C463.773 129.6 463.006 130.032 462.086 130.339C461.194 130.673 460.135 130.84 458.908 130.84C457.319 130.84 455.967 130.687 454.852 130.38C453.737 130.074 452.803 129.711 452.05 129.293L453.054 126.449C453.695 126.812 454.531 127.146 455.563 127.453C456.594 127.76 457.64 127.913 458.699 127.913C459.898 127.913 460.888 127.676 461.668 127.202C462.449 126.728 462.839 125.878 462.839 124.651Z" fill="#262626"/>
<path d="M87 56.3385L167.5 39.8385V83.8385L101.5 70.8385L91 166.839L52 131.839L57 91.8385L50 85.8385L46 116.339L41.5 114.339L34 109.839L33 103.339L41.5 108.839L46 76.8385L63.5 85.8385L60.5 125.339L83.5 145.839L87 56.3385Z" fill="#E19C9C" stroke="black" stroke-width="2"/>
<circle cx="169" cy="62.3385" r="22" fill="#9BC4EA" stroke="white" stroke-width="4"/>
<path d="M194.279 78.0007C197.343 69.0622 194.439 77.6544 197.343 69.0622L210.211 78.483C207.149 78.1719 199.72 78.0731 194.299 78.001L194.279 78.0007Z" fill="#6FCF97" fill-opacity="0.43"/>
<path d="M198.046 54.446C195.037 45.4887 197.962 54.0734 195.037 45.4887L210.981 45.1324C208.362 46.7492 202.407 51.1921 198.062 54.4336L198.046 54.446Z" fill="#6FCF97" fill-opacity="0.43"/>
<path d="M181.433 35.856C172.167 34.0012 181.068 35.7425 172.167 34.0012L179.803 20C179.9 23.0765 180.785 30.4533 181.43 35.8355L181.433 35.856Z" fill="#6FCF97" fill-opacity="0.43"/>
<path d="M172.043 91.2983C181.044 88.4221 172.417 91.2206 181.044 88.4221L181.165 104.37C179.587 101.727 175.233 95.7071 172.055 91.315L172.043 91.2983Z" fill="#6FCF97" fill-opacity="0.43"/>
</svg>
